<svg id="icons" xmlns="http://www.w3.org/2000/svg" viewBox="0 0 44.55 44.55"><defs><style>.cls-1{fill:#807f80;}</style></defs><title>4138 [modify]</title><g id="C"><path class="cls-1" d="M13.3,7.32A2.7,2.7,0,1,0,16,10,2.7,2.7,0,0,0,13.3,7.32Zm0,3.71a1,1,0,0,1-1-1,1,1,0,0,1,2,0A1,1,0,0,1,13.3,11Z"/><path class="cls-1" d="M28.58,27.29a5.53,5.53,0,0,1-5.16,4.29c-3,0-5.4-2.74-5.4-6.11V21c0-3.37,2.42-6.11,5.4-6.11a5.53,5.53,0,0,1,5.18,4.4h4.33C32.07,14,28,10,23.21,10c-5.47,0-9.91,5.13-9.91,11.46V25c0,6.33,4.44,11.46,9.91,11.46,4.8,0,8.8-4,9.71-9.21Z"/></g></svg>