<svg xmlns="http://www.w3.org/2000/svg" viewBox="0 0 44.55 44.55"><defs><style>.cls-1{isolation:isolate;}.cls-2,.cls-3{fill:#807f80;}.cls-2{opacity:0.07;mix-blend-mode:multiply;}</style></defs><title>4138 [modify]</title><g class="cls-1"><g id="icons"><g id="tornado"><g id="tornado-2" data-name="tornado"><path class="cls-2" d="M22.08,37.84a7.27,7.27,0,0,1-2.67.24A29.73,29.73,0,0,0,23,39.54S22.6,38.87,22.08,37.84Z"/><path class="cls-3" d="M21.92,27.29c1-.79,2-1.44,2.9-2.14,4.1-3.33,6-6.43,7-9.24A22.55,22.55,0,0,0,33,10.14c0-1-4.87-1.73-10.88-1.73s-10.89.77-10.89,1.73c0,.17.19.31.23.35a8.15,8.15,0,0,1,1.63,2c1,1.56,2.29,4,1.23,6.32a26,26,0,0,0-2.24,6.26c-1,5.53,1.08,11.19,11,14.46a23.07,23.07,0,0,1-2.64-6.22C19.85,31,20.06,28.76,21.92,27.29Z"/><path class="cls-3" d="M32.19,27.56a7.16,7.16,0,0,1-1.32.38,1.29,1.29,0,0,0-.78,2,1.37,1.37,0,0,1-.44.33s.09.17.17.17l.33-.42a1.06,1.06,0,0,0,1.35.11C32.45,29.64,32.27,27.51,32.19,27.56Z"/><path class="cls-3" d="M31.44,7.37a6.43,6.43,0,0,1,1.37,0,1.3,1.3,0,0,0,1.24-1.74,1.38,1.38,0,0,1,.5-.21s0-.19-.13-.21-.22.18-.42.32a1.06,1.06,0,0,0-1.28-.42C31.68,5.29,31.35,7.4,31.44,7.37Z"/><path class="cls-3" d="M12.43,16.3a6.92,6.92,0,0,1-.11-1.37,1.3,1.3,0,0,0-1.79-1.16,1.08,1.08,0,0,1-.23-.49s-.19.06-.21.14l.34.4a1.06,1.06,0,0,0-.36,1.3C10.34,16.15,12.46,16.39,12.43,16.3Z"/><path class="cls-3" d="M33.69,12.32a.05.05,0,0,0-.1,0,17.43,17.43,0,0,1-1.33,5c0,.1.1.19.15.08A9.6,9.6,0,0,0,33.69,12.32Z"/><path class="cls-3" d="M11.3,30.23a11.33,11.33,0,0,1-.2-2.66s0,0,0,0a5.82,5.82,0,0,0,.86,4.66s.1,0,.08,0A13.52,13.52,0,0,1,11.3,30.23Z"/></g></g></g></g></svg>