<svg id="icons" xmlns="http://www.w3.org/2000/svg" viewBox="0 0 44.55 44.55"><defs><style>.cls-1{fill:#807f80;}</style></defs><title>4138 [modify]</title><g id="rain"><path class="cls-1" d="M15,33.77a2,2,0,0,1-2.27,1.67,2,2,0,0,1-1.31-2.5c.26-1.15,2.61-3.15,2.61-3.15S15.28,32.62,15,33.77Z"/><path class="cls-1" d="M23.52,35.51a2.53,2.53,0,0,1-2.87,2.11A2.54,2.54,0,0,1,19,34.46c.34-1.45,3.3-4,3.3-4S23.86,34.05,23.52,35.51Z"/><path class="cls-1" d="M31.5,33.77a2,2,0,0,1-2.27,1.67,2,2,0,0,1-1.31-2.5c.26-1.15,2.61-3.15,2.61-3.15S31.77,32.62,31.5,33.77Z"/><path class="cls-1" d="M33.53,14a8.15,8.15,0,0,0-1.22.09,5.2,5.2,0,0,0-4.76-3,5.36,5.36,0,0,0-.7.05A4.81,4.81,0,0,0,22.2,6.88a4.78,4.78,0,0,0-4.59,3.9,4.28,4.28,0,0,0-1.19-.17,4.84,4.84,0,0,0-4.69,4.54,4.46,4.46,0,0,0-2.3-.65,4.89,4.89,0,0,0-4.72,5,4.88,4.88,0,0,0,4.72,5,5.2,5.2,0,0,0,.69-.06,4.74,4.74,0,0,0,4.41,3.24,4.32,4.32,0,0,0,1.86-.41A7.77,7.77,0,0,0,22,29.48c3.1,0,5.71-1.51,6.55-3.59a4.52,4.52,0,0,0,2.82,1,4.73,4.73,0,0,0,4.36-3.13c2.4-.71,4.11-2.56,4.11-4.72C39.83,16.27,37,14,33.53,14Zm-24,2.44c-1.91,0-2.91,1.92-2.9,3.62a.48.48,0,0,1-1,0c0-2.23,1.42-4.63,3.86-4.59A.49.49,0,0,1,9.5,16.46Zm6.1-3.76a2.24,2.24,0,0,0-1.7,2c0,.62-1,.62-1,0a3.2,3.2,0,0,1,2.4-2.88C16,11.64,16.21,12.57,15.6,12.7Zm6.45-3.91A2.27,2.27,0,0,0,20,10.55c-.1.62-1,.35-.93-.25a3.22,3.22,0,0,1,3-2.47A.48.48,0,0,1,22.05,8.79Z"/></g></svg>