<svg id="icons" xmlns="http://www.w3.org/2000/svg" viewBox="0 0 44.55 44.55"><defs><style>.cls-1{fill:#807f80;}</style></defs><title>4138 [modify]</title><g id="f"><path class="cls-1" d="M14.76,9.39A2.26,2.26,0,1,0,17,11.66,2.27,2.27,0,0,0,14.76,9.39Zm0,3.11a.85.85,0,1,1,.85-.84A.85.85,0,0,1,14.76,12.5Z"/><path class="cls-1" d="M31.23,12.76H18.53a.65.65,0,0,0-.65.64V35.9a.65.65,0,0,0,.65.65h2.53a.65.65,0,0,0,.64-.65V25.27h8.67a.64.64,0,0,0,.64-.65V22.09a.64.64,0,0,0-.64-.64H21.7V16.58h9.53a.65.65,0,0,0,.65-.65V13.4A.65.65,0,0,0,31.23,12.76Z"/></g></svg>