<svg id="icons" xmlns="http://www.w3.org/2000/svg" viewBox="0 0 44.55 44.55"><defs><style>.cls-1{fill:#807f80;}</style></defs><title>4138 [modify]</title><g id="moon_cloud"><path class="cls-1" d="M13.31,29.38a4.52,4.52,0,0,1,4.39-4.64,3.91,3.91,0,0,1,1.23.19,4.43,4.43,0,0,1,4.19-3.21l.39,0a4.39,4.39,0,0,1,4.08-2.91,4.32,4.32,0,0,1,.88.1A13.27,13.27,0,0,0,17.39,7.46a13.25,13.25,0,0,1-12,18.8A12.76,12.76,0,0,1,3.3,26.1a13.24,13.24,0,0,0,12,7.69q.46,0,.93,0A4.65,4.65,0,0,1,13.31,29.38Z"/><path class="cls-1" d="M36.37,25.11a7.32,7.32,0,0,0-.95.07,4,4,0,0,0-3.69-2.33,3.08,3.08,0,0,0-.53,0,3.74,3.74,0,0,0-3.61-3.31,3.7,3.7,0,0,0-3.55,3,3.52,3.52,0,0,0-.92-.13A3.74,3.74,0,0,0,19.49,26a3.53,3.53,0,0,0-1.79-.49,3.9,3.9,0,0,0,0,7.79,3.1,3.1,0,0,0,.54-.05,3.67,3.67,0,0,0,3.41,2.52,3.53,3.53,0,0,0,1.45-.32,6,6,0,0,0,4.33,1.65c2.4,0,4.42-1.17,5.08-2.78a3.44,3.44,0,0,0,2.18.78,3.67,3.67,0,0,0,3.38-2.42A4.06,4.06,0,0,0,41.25,29C41.25,26.85,39.06,25.11,36.37,25.11ZM17.76,27c-1.48,0-2.26,1.49-2.24,2.8a.38.38,0,0,1-.75,0c0-1.72,1.1-3.59,3-3.55A.38.38,0,0,1,17.76,27Zm4.72-2.91a1.71,1.71,0,0,0-1.31,1.51c0,.48-.77.48-.75,0a2.47,2.47,0,0,1,1.86-2.23C22.75,23.27,23,24,22.48,24.09Zm5-3a1.76,1.76,0,0,0-1.61,1.35c-.07.48-.79.28-.72-.19a2.5,2.5,0,0,1,2.33-1.91A.38.38,0,0,1,27.48,21.07Z"/><polygon class="cls-1" points="7.64 21.09 8.51 21.7 9.56 21.75 8.95 22.61 8.9 23.68 8.04 23.06 6.97 23.01 7.59 22.15 7.64 21.09"/><polygon class="cls-1" points="14.96 10.07 15.22 11.94 16.45 13.37 14.58 13.63 13.15 14.86 12.89 12.99 11.66 11.56 13.53 11.3 14.96 10.07"/><polygon class="cls-1" points="36.27 18.88 36.38 20.29 37.23 21.42 35.82 21.53 34.69 22.38 34.59 20.97 33.73 19.84 35.15 19.73 36.27 18.88"/></g></svg>