<svg id="icons" xmlns="http://www.w3.org/2000/svg" viewBox="0 0 44.55 44.55"><defs><style>.cls-1{fill:#807f80;}</style></defs><title>4138 [modify]</title><g id="temperature_low"><g id="temperature_low-2" data-name="temperature_low"><path class="cls-1" d="M33.08,21.73H30.8c-.25,0-.46.29-.46.65s.21.65.46.65h2.28c.26,0,.46-.29.46-.65S33.34,21.73,33.08,21.73Z"/><path class="cls-1" d="M33.08,10.48H30.8c-.25,0-.46.29-.46.65s.21.65.46.65h2.28c.26,0,.46-.29.46-.65S33.34,10.48,33.08,10.48Z"/><path class="cls-1" d="M33.08,16.1H30.8c-.25,0-.46.29-.46.65s.21.65.46.65h2.28c.26,0,.46-.29.46-.65S33.34,16.1,33.08,16.1Z"/><path class="cls-1" d="M28.71,24.82V9.71a6.32,6.32,0,0,0-12.63,0V24.82a9.4,9.4,0,1,0,12.63,0ZM22.4,40.17a8.4,8.4,0,0,1-5.34-14.9V9.71a5.34,5.34,0,0,1,10.67,0V25.27a8.4,8.4,0,0,1-5.33,14.9Z"/><path class="cls-1" d="M27,25.91l-.34-.29V22.85a.47.47,0,0,0-.47-.47H18.64a.48.48,0,0,0-.47.47v2.77l-.34.29a7.2,7.2,0,1,0,9.13,0Zm-8.57,2.76c-1.23.81-1.27,2.77-.84,4,.2.6-.74.86-.95.26-.58-1.7-.31-4.07,1.29-5.12C18.42,27.48,18.91,28.33,18.39,28.67Z"/></g></g></svg>