<svg id="icons" xmlns="http://www.w3.org/2000/svg" viewBox="0 0 44.55 44.55"><defs><style>.cls-1{fill:#807f80;}</style></defs><title>4138 [modify]</title><g id="temperature_high"><g id="temperature_high-2" data-name="temperature_high"><path class="cls-1" d="M33.05,21.73H30.78c-.26,0-.47.29-.47.65s.21.65.47.65h2.27c.26,0,.47-.29.47-.65S33.31,21.73,33.05,21.73Z"/><path class="cls-1" d="M33.05,10.48H30.78c-.26,0-.47.29-.47.65s.21.65.47.65h2.27c.26,0,.47-.29.47-.65S33.31,10.48,33.05,10.48Z"/><path class="cls-1" d="M33.05,16.1H30.78c-.26,0-.47.29-.47.65s.21.65.47.65h2.27c.26,0,.47-.29.47-.65S33.31,16.1,33.05,16.1Z"/><path class="cls-1" d="M28.74,24.82V9.71a6.32,6.32,0,0,0-12.64,0V24.82a9.4,9.4,0,1,0,12.64,0ZM22.42,40.17a8.41,8.41,0,0,1-5.34-14.9V9.71a5.34,5.34,0,0,1,10.68,0V25.27a8.4,8.4,0,0,1-5.34,14.9Z"/><path class="cls-1" d="M27,25.91l-.34-.29V11.2a.48.48,0,0,0-.47-.47H18.67a.47.47,0,0,0-.47.47V25.62l-.34.29a7.2,7.2,0,1,0,9.13,0Zm-8.51,2.76c-1.22.81-1.26,2.77-.83,4,.2.6-.74.86-.95.26-.58-1.7-.31-4.07,1.29-5.13C18.52,27.47,19,28.32,18.48,28.67Z"/></g></g></svg>