<svg id="icons" xmlns="http://www.w3.org/2000/svg" viewBox="0 0 44.55 44.55"><defs><style>.cls-1{fill:#807f80;}</style></defs><title>4138 [modify]</title><g id="storm2"><polygon class="cls-1" points="15.11 29.08 11.27 32.93 11.27 32.92 12.91 34.28 11.14 37.48 15.05 34.45 13.41 32.81 15.11 29.08"/><polygon class="cls-1" points="24.29 28.21 18.97 33.52 18.97 33.52 21.24 35.4 18.8 39.82 24.21 35.63 21.94 33.36 24.29 28.21"/><polygon class="cls-1" points="31.94 29.08 28.1 32.93 28.1 32.92 29.74 34.28 27.97 37.48 31.89 34.45 30.24 32.81 31.94 29.08"/><path class="cls-1" d="M19.29,22.25a2.79,2.79,0,0,0-4.06-2.07,3.5,3.5,0,0,0-6.87-.26,3.66,3.66,0,0,0-.88-.11,2.87,2.87,0,0,0-3,3.26C5.34,27.8,19.8,27.67,19.29,22.25ZM6.87,21.12A1.45,1.45,0,0,0,5.69,23c.19.43-.45.8-.63.37a2.18,2.18,0,0,1,1.81-3A.37.37,0,0,1,6.87,21.12Zm4.59-2.6a1.39,1.39,0,0,0-1.35,1.07c0,.47-.77.47-.73,0a2.1,2.1,0,0,1,2.08-1.8A.37.37,0,0,1,11.46,18.52Z"/><path class="cls-1" d="M37.76,17.22a13.34,13.34,0,0,1-5.09.91h0c-3.68,0-7.62-1.24-8.11-4a3.39,3.39,0,0,1,.75-2.78,4,4,0,0,1,.56-.53,4.32,4.32,0,0,0-8.2.67,4.28,4.28,0,0,0-1.09-.14,4.33,4.33,0,0,0-4.3,3.9A4.31,4.31,0,0,0,5.85,19a2.68,2.68,0,0,0,0,.4,3.94,3.94,0,0,1,1.61-.34l.38,0a4.23,4.23,0,0,1,7.87.12,3.22,3.22,0,0,1,.76-.09A3.49,3.49,0,0,1,20,22.18a3.44,3.44,0,0,1-.92,2.7,5.7,5.7,0,0,1-1.93,1.33,7.74,7.74,0,0,0,4.52,1.34c2.84,0,5.24-1.3,6-3.08a4.32,4.32,0,0,0,6.59-1.83c2.2-.61,3.77-2.19,3.77-4.05A3.38,3.38,0,0,0,37.76,17.22ZM16.14,13.06a3,3,0,0,0-2.34,2,.37.37,0,0,1-.71-.19,3.69,3.69,0,0,1,2.85-2.52C16.41,12.28,16.6,13,16.14,13.06ZM21.4,9.61a2.8,2.8,0,0,0-1.95,1.7c-.18.43-.89.24-.71-.19A3.5,3.5,0,0,1,21.2,8.91C21.66,8.83,21.86,9.53,21.4,9.61Z"/><path class="cls-1" d="M40.07,13.17a2.79,2.79,0,0,0-4-2.07,3.51,3.51,0,0,0-6.88-.25,3.17,3.17,0,0,0-.88-.12,2.87,2.87,0,0,0-3,3.26C26.12,18.72,40.59,18.59,40.07,13.17ZM28.08,12a1.79,1.79,0,0,0-1.59,1.68.37.37,0,0,1-.73,0,2.53,2.53,0,0,1,2.32-2.42A.37.37,0,0,1,28.08,12Zm4.4-2.35a1.48,1.48,0,0,0-1.51.73.37.37,0,0,1-.64-.37A2.24,2.24,0,0,1,32.48,9C33,9,33,9.73,32.48,9.69Z"/></g></svg>