<?xml version="1.0" encoding="utf-8"?>
<!-- Generator: Adobe Illustrator 23.0.3, SVG Export Plug-In . SVG Version: 6.00 Build 0)  -->
<svg version="1.1" id="icons" xmlns="http://www.w3.org/2000/svg" xmlns:xlink="http://www.w3.org/1999/xlink" x="0px" y="0px"
	 viewBox="0 0 44.5 44.5" style="enable-background:new 0 0 44.5 44.5;" xml:space="preserve">
<style type="text/css">
	.st0{fill:#807F80;}
</style>
<title>4138 [modify]</title>
<g>
	<path class="st0" d="M34.3,12.5c-0.4,0-0.9,0-1.3,0.1c-0.9-2-2.9-3.2-5.1-3.2c-0.2,0-0.5,0-0.7,0.1c-0.3-2.6-2.4-4.5-5-4.6
		c-2.4,0.1-4.5,1.8-4.9,4.2c-0.4-0.1-0.8-0.2-1.3-0.2c-2.7,0.1-4.8,2.2-5,4.9C10.2,13.2,9.4,13,8.5,13c-2.9,0.1-5.1,2.5-5.1,5.4
		c-0.1,2.9,2.2,5.3,5.1,5.4c0.3,0,0.5,0,0.8-0.1c0.7,2.1,2.6,3.5,4.8,3.5c0.7,0,1.4-0.2,2-0.5c1.6,1.5,3.8,2.4,6,2.3
		c3.3,0,6.1-1.6,7-3.9c0.8,0.7,1.9,1.1,3,1.1c2.1,0,4-1.3,4.7-3.3c2.6-0.8,4.4-2.7,4.4-5.1C41.1,14.9,38.1,12.5,34.3,12.5z
		 M8.6,15.1c-2.1,0-3.1,2.1-3.1,3.9c-0.1,0.3-0.4,0.4-0.6,0.4c-0.2,0-0.3-0.2-0.4-0.4c0-2.4,1.5-5,4.2-4.9c0.3,0,0.5,0.3,0.5,0.5
		C9.1,14.9,8.9,15.1,8.6,15.1L8.6,15.1z M15.1,11.1c-1,0.2-1.7,1.1-1.8,2.1c0,0.7-1.1,0.7-1,0c0.1-1.5,1.1-2.7,2.6-3.1
		C15.5,9.9,15.8,10.9,15.1,11.1L15.1,11.1z M22,6.9c-1.1,0.1-2,0.8-2.2,1.9c-0.1,0.7-1.1,0.4-1-0.3C19.2,7,20.5,5.9,22,5.9
		c0.3,0,0.5,0.2,0.5,0.5C22.5,6.7,22.3,6.9,22,6.9z"/>
</g>
</svg>
