<svg id="icons" xmlns="http://www.w3.org/2000/svg" viewBox="0 0 44.55 44.55"><defs><style>.cls-1{fill:#807f80;}</style></defs><title>4138 [modify]</title><g id="sun"><g id="sun-2" data-name="sun"><path class="cls-1" d="M22.27,34.08a11.81,11.81,0,1,1,11.81-11.8A11.82,11.82,0,0,1,22.27,34.08Zm0-22.64A10.84,10.84,0,1,0,33.11,22.28,10.85,10.85,0,0,0,22.27,11.44Z"/><path class="cls-1" d="M41.05,22.28l-6.39-5.14L35.55,9l-8.14.88L22.27,3.5,17.14,9.88,9,9l.88,8.14L3.5,22.28l6.38,5.13L9,35.55l8.14-.89,5.13,6.39,5.14-6.39,8.14.89-.89-8.14Zm-9.53,9.24a16.83,16.83,0,0,1-4.17,3,16.5,16.5,0,0,1-10.15,0A16.53,16.53,0,0,1,10,27.36a16.56,16.56,0,0,1,0-10.17A16.53,16.53,0,0,1,17.2,10a16.5,16.5,0,0,1,10.15,0,16.83,16.83,0,0,1,4.17,3,17.23,17.23,0,0,1,3,4.16,16.56,16.56,0,0,1,0,10.17A17,17,0,0,1,31.52,31.52Z"/></g></g></svg>