<?xml version="1.0" encoding="utf-8"?>
<!-- Generator: Adobe Illustrator 23.0.3, SVG Export Plug-In . SVG Version: 6.00 Build 0)  -->
<svg version="1.1" id="icons" xmlns="http://www.w3.org/2000/svg" xmlns:xlink="http://www.w3.org/1999/xlink" x="0px" y="0px"
	 viewBox="0 0 44.5 44.5" style="enable-background:new 0 0 44.5 44.5;" xml:space="preserve">
<style type="text/css">
	.st0{fill:#807F80;}
</style>
<title>4138 [modify]</title>
<g id="snow2">
	<path class="st0" d="M18.8,21.9c-0.2-1.6-1.7-2.6-3.2-2.4c-0.3,0-0.6,0.1-0.9,0.3c-0.4-1.9-2.2-3.2-4.2-2.9
		c-1.4,0.3-2.5,1.3-2.8,2.6c-0.3-0.1-0.6-0.1-0.9-0.1c-1.7-0.1-3.1,1.2-3.1,2.9c0,0.2,0,0.3,0,0.5C4.5,27.5,19.3,27.4,18.8,21.9z
		 M6,20.7c-0.8,0.1-1.4,0.9-1.2,1.7c0,0.1,0,0.1,0,0.2C5,23,4.4,23.4,4.2,23c-0.4-1.2,0.2-2.4,1.3-2.9C5.7,20,5.8,20,6,20
		c0.2,0.1,0.3,0.3,0.2,0.5C6.2,20.6,6.1,20.7,6,20.7z M10.7,18c-0.7,0-1.2,0.5-1.4,1.1c0,0.5-0.8,0.5-0.8,0c0.2-1.1,1.1-1.8,2.1-1.9
		c0.2,0,0.4,0.2,0.4,0.4C11.1,17.8,10.9,18,10.7,18L10.7,18z"/>
	<path class="st0" d="M37.7,16.7c-1.7,0.6-3.4,1-5.2,0.9l0,0c-3.8,0-7.8-1.3-8.3-4.1c-0.2-1,0.1-2.1,0.8-2.9
		c0.2-0.2,0.4-0.4,0.6-0.6c-0.9-2.3-3.5-3.3-5.8-2.4c-1.3,0.5-2.3,1.7-2.6,3.1c-0.4-0.1-0.8-0.1-1.2-0.1c-2.3,0-4.2,1.7-4.4,4
		c-2.1-1.2-4.8-0.4-6,1.7C5.2,17,5,17.8,5,18.5c0,0.1,0,0.3,0,0.4c0.5-0.2,1.1-0.4,1.7-0.4H7c0.9-2.2,3.5-3.3,5.7-2.3
		c1.1,0.5,2,1.3,2.4,2.5c0.3-0.1,0.5-0.1,0.8-0.1c1.8,0,3.4,1.3,3.6,3.1c0.1,1-0.2,2-1,2.8c-0.6,0.6-1.2,1-2,1.4
		c1.4,0.9,3,1.4,4.6,1.4c2.9,0,5.4-1.3,6.2-3.2c1.9,1.5,4.7,1.1,6.2-0.9c0.2-0.3,0.4-0.6,0.6-1c2.3-0.6,3.9-2.2,3.9-4.1
		C38,17.6,37.9,17.1,37.7,16.7z M15.5,12.4c-1.1,0.2-2.1,1-2.4,2.1c-0.1,0.2-0.3,0.3-0.5,0.2c-0.2-0.1-0.3-0.2-0.2-0.4
		c0.4-1.3,1.6-2.3,2.9-2.6C15.8,11.6,16,12.4,15.5,12.4z M20.9,8.9c-0.9,0.2-1.7,0.9-2,1.8c-0.2,0.4-0.9,0.2-0.7-0.2
		c0.4-1.1,1.4-2,2.5-2.3C21.2,8.1,21.4,8.8,20.9,8.9z"/>
	<path class="st0" d="M40.1,12.5c-0.2-1.6-1.7-2.6-3.3-2.4c-0.3,0-0.6,0.1-0.9,0.3c-0.4-1.9-2.2-3.2-4.2-2.9
		c-1.4,0.3-2.5,1.3-2.8,2.6C28.6,10.1,28.3,10,28,10c-1.6,0-3,1.2-3,2.8c0,0.2,0,0.3,0,0.5C25.8,18.2,40.6,18.1,40.1,12.5z
		 M27.8,11.4c-0.9,0.1-1.6,0.8-1.6,1.7c0,0.2-0.2,0.3-0.4,0.3c-0.2,0-0.3-0.2-0.3-0.3c0-1.3,1.1-2.4,2.4-2.5c0.2,0,0.3,0.2,0.3,0.4
		C28.1,11.2,28,11.4,27.8,11.4z M32.3,9c-0.6-0.1-1.2,0.2-1.5,0.8c-0.1,0.2-0.4,0.2-0.5,0.1c-0.1-0.1-0.2-0.3-0.1-0.4
		c0.4-0.8,1.3-1.2,2.2-1.1C32.8,8.3,32.8,9,32.3,9z"/>
</g>
</svg>
