<svg id="icons" xmlns="http://www.w3.org/2000/svg" viewBox="0 0 44.55 44.55"><defs><style>.cls-1{fill:#807f80;}</style></defs><title>4138 [modify]</title><g id="rain2"><path class="cls-1" d="M16.34,32.37a1.86,1.86,0,0,1-2.1,1.54A1.85,1.85,0,0,1,13,31.6c.24-1.06,2.41-2.9,2.41-2.9S16.58,31.31,16.34,32.37Z"/><path class="cls-1" d="M24.18,34a2.33,2.33,0,0,1-2.64,2A2.35,2.35,0,0,1,20,33c.31-1.34,3.05-3.67,3.05-3.67S24.49,32.63,24.18,34Z"/><path class="cls-1" d="M31.54,32.37a1.71,1.71,0,1,1-3.3-.77c.24-1.06,2.41-2.9,2.41-2.9S31.79,31.31,31.54,32.37Z"/><path class="cls-1" d="M19.19,23.19A2.89,2.89,0,0,0,15,21.05a3.62,3.62,0,0,0-7.11-.26A3.46,3.46,0,0,0,7,20.66,3,3,0,0,0,3.89,24C4.75,28.93,19.72,28.8,19.19,23.19ZM6.34,22A1.51,1.51,0,0,0,5.12,24c.19.44-.47.83-.66.38a2.26,2.26,0,0,1,1.88-3.07A.38.38,0,0,1,6.34,22Zm4.74-2.69a1.44,1.44,0,0,0-1.39,1.11c0,.48-.8.49-.76,0a2.19,2.19,0,0,1,2.15-1.87A.38.38,0,0,1,11.08,19.33Z"/><path class="cls-1" d="M38.3,18a13.64,13.64,0,0,1-5.27.94h0c-3.81,0-7.88-1.28-8.39-4.15a3.49,3.49,0,0,1,.78-2.87,3.35,3.35,0,0,1,.58-.55,4.47,4.47,0,0,0-8.49.69,4.58,4.58,0,0,0-1.12-.15,4.47,4.47,0,0,0-4.45,4,4.41,4.41,0,0,0-2.19-.57,4.47,4.47,0,0,0-4.47,4.47c0,.14,0,.28,0,.42A4.05,4.05,0,0,1,7,19.91h.4a4.39,4.39,0,0,1,8.15.12,4,4,0,0,1,.78-.08,3.61,3.61,0,0,1,3.65,3.16,3.57,3.57,0,0,1-1,2.8,6.32,6.32,0,0,1-2,1.38,8.15,8.15,0,0,0,4.68,1.38c2.94,0,5.42-1.35,6.22-3.19A4.47,4.47,0,0,0,34.7,23.6c2.28-.63,3.91-2.27,3.91-4.2A3.61,3.61,0,0,0,38.3,18Zm-22.37-4.3a3.09,3.09,0,0,0-2.43,2.08.38.38,0,0,1-.73-.21,3.84,3.84,0,0,1,3-2.6C16.2,12.88,16.41,13.61,15.93,13.69Zm5.44-3.57a2.86,2.86,0,0,0-2,1.76c-.18.44-.92.24-.73-.21a3.67,3.67,0,0,1,2.54-2.29C21.64,9.31,21.85,10,21.37,10.12Z"/><path class="cls-1" d="M40.69,13.8a2.89,2.89,0,0,0-4.2-2.14,3.62,3.62,0,0,0-7.11-.27,3.91,3.91,0,0,0-.91-.12,3,3,0,0,0-3.08,3.38C26.26,19.54,41.22,19.41,40.69,13.8ZM28.28,12.63a1.84,1.84,0,0,0-1.64,1.74.38.38,0,0,1-.76,0,2.61,2.61,0,0,1,2.4-2.5A.38.38,0,0,1,28.28,12.63Zm4.56-2.44a1.56,1.56,0,0,0-1.57.77.38.38,0,0,1-.66-.39,2.28,2.28,0,0,1,2.23-1.13C33.32,9.48,33.32,10.24,32.84,10.19Z"/></g></svg>