<svg id="icons" xmlns="http://www.w3.org/2000/svg" viewBox="0 0 44.55 44.55"><defs><style>.cls-1{fill:#807f80;}</style></defs><title>4138 [modify]</title><g id="sun_cloud"><path class="cls-1" d="M16.15,32.17a12.56,12.56,0,0,1-3.85-.6,12.85,12.85,0,0,1-3.15-2.3,12.66,12.66,0,0,1-2.3-3.15,12.62,12.62,0,0,1,0-7.69A12.51,12.51,0,0,1,12.3,13,12.62,12.62,0,0,1,20,13a12.62,12.62,0,0,1,3.15,2.29,13.87,13.87,0,0,1,2.37,3.29c0-.09.69-6.34.69-6.34L20,12.89,16.15,8.06l-3.89,4.83-6.17-.67.67,6.17L1.93,22.27l4.83,3.89-.67,6.17,6.17-.68,3.89,4.84L20,31.71l-.15-.1A12.49,12.49,0,0,1,16.15,32.17Z"/><path class="cls-1" d="M39,22.31a3.36,3.36,0,0,0-1.75.49,3.69,3.69,0,0,0-3.57-3.45,3.38,3.38,0,0,0-.9.13,3.65,3.65,0,0,0-3.49-3,3.61,3.61,0,0,0-3.39,2.6,1.82,1.82,0,0,0-1.06,0l-.08-.21A9.3,9.3,0,1,0,19,31.13l1-.35a3.45,3.45,0,0,0,2.36.95A3.37,3.37,0,0,0,24.5,31c.65,1.58,2.63,2.73,5,2.73a5.93,5.93,0,0,0,4.25-1.63,3.42,3.42,0,0,0,1.42.31,3.6,3.6,0,0,0,3.35-2.46A4.55,4.55,0,0,0,39,30a3.83,3.83,0,0,0,0-7.65ZM21.23,21.24a4.41,4.41,0,0,0-.52,0c-3,0-5.51,2.05-5.51,4.56a4.61,4.61,0,0,0,3.31,4.17,4.67,4.67,0,0,0,.27.49,8.57,8.57,0,1,1,5.34-11.29A4.65,4.65,0,0,0,21.23,21.24Zm14.48,1.25a2,2,0,0,0-1.82-1.77c-.48,0-.48-.75,0-.73a2.72,2.72,0,0,1,2.52,2.31C36.5,22.76,35.79,23,35.71,22.49ZM40.92,27a.41.41,0,0,1-.51-.39,2.52,2.52,0,0,0-.16-1.83,2.32,2.32,0,0,0-1.11-.92,3.06,3.06,0,0,1-.71-.33.12.12,0,0,1,.06-.23,2.5,2.5,0,0,1,2.68,1.41C41.48,25.29,41.74,26.67,40.92,27Z"/></g></svg>