<svg id="icons" xmlns="http://www.w3.org/2000/svg" viewBox="0 0 44.55 44.55"><defs><style>.cls-1{fill:#807f80;}</style></defs><title>4138 [modify]</title><g id="temperature_medium"><g id="temperature_medium-2" data-name="temperature_medium"><path class="cls-1" d="M33.1,21.73H30.82c-.26,0-.46.29-.46.65s.2.65.46.65H33.1c.25,0,.46-.29.46-.65S33.35,21.73,33.1,21.73Z"/><path class="cls-1" d="M33.1,10.48H30.82c-.26,0-.46.29-.46.65s.2.65.46.65H33.1c.25,0,.46-.29.46-.65S33.35,10.48,33.1,10.48Z"/><path class="cls-1" d="M33.1,16.1H30.82c-.26,0-.46.29-.46.65s.2.65.46.65H33.1c.25,0,.46-.29.46-.65S33.35,16.1,33.1,16.1Z"/><path class="cls-1" d="M29.08,24.82V9.71a6.32,6.32,0,0,0-12.64,0V24.82a9.4,9.4,0,1,0,12.64,0ZM22.76,40.17a8.41,8.41,0,0,1-5.34-14.9V9.71a5.34,5.34,0,0,1,10.68,0V25.27a8.41,8.41,0,0,1-5.34,14.9Z"/><path class="cls-1" d="M27.33,25.91,27,25.62V16.9a.47.47,0,0,0-.47-.47H19a.47.47,0,0,0-.47.47v8.72l-.34.29a7.2,7.2,0,1,0,9.13,0Zm-8.28,2.76c-1.23.81-1.27,2.77-.84,4,.2.6-.74.86-.95.26-.58-1.7-.31-4.07,1.29-5.13C19.08,27.47,19.57,28.32,19.05,28.67Z"/></g></g></svg>